<?xml version="1.0" encoding="UTF-8"?>
<svg width="25px" height="25px" viewBox="0 0 25 25" version="1.1" xmlns="http://www.w3.org/2000/svg" xmlns:xlink="http://www.w3.org/1999/xlink">
    <!-- Generator: Sketch 60.1 (88133) - https://sketch.com -->
    <title>admin_icon</title>
    <desc>Created with Sketch.</desc>
    <g id="Page-1" stroke="none" stroke-width="1" fill="none" fill-rule="evenodd">
        <g id="Desktop-HD-Copy-5" transform="translate(-121.000000, -249.000000)" fill="#C7F7EF" fill-rule="nonzero">
            <g id="admin" transform="translate(121.000000, 249.000000)">
                <g id="admin_icon">
                    <path d="M12.1747865,4.8021662 C14.3570481,4.8021662 16.1519677,6.59713438 16.1519677,8.77934737 C16.1519677,10.2829099 15.3271042,11.5928015 14.1149472,12.2715005 C17.0253583,13.2416052 18.8685134,16.3456387 18.8685134,19.4988068 L18.0436499,19.4988068 C18.0436499,16.1519677 15.7152238,12.8058575 12.1747136,12.8058575 C8.58560347,12.8058575 6.25717737,16.1526967 6.25717737,19.4988068 L5.43231383,19.4988068 C5.43231383,16.3463677 7.27568761,13.2415566 10.18588,12.2715005 C8.97372308,11.5928015 8.14885955,10.2828856 8.14885955,8.77934737 C8.14885955,6.59708578 9.94382772,4.8021662 12.1743977,4.8021662 L12.1747865,4.8021662 Z M12.1747865,5.62702974 C10.3798183,5.62702974 8.97399038,7.0337811 8.97399038,8.77946887 C8.97399038,10.5260314 10.3807417,11.980265 12.1747865,11.980265 C13.9213491,11.980265 15.3272257,10.525108 15.3272257,8.77946887 C15.3272257,7.0329063 13.9204743,5.62702974 12.1747865,5.62702974 L12.1747865,5.62702974 Z" id="Shape"></path>
                    <path d="M12.1747865,0 C18.8677358,0 24.300001,5.43226523 24.300001,12.1747865 C24.300001,18.8677358 18.8677358,24.300001 12.1747865,24.300001 C5.43250823,24.300001 0,18.8677358 0,12.1747865 C0,5.43250823 5.43226523,0 12.1747865,0 Z M12.1747865,0.824863535 C5.86917925,0.824863535 0.824985035,5.86905775 0.824985035,12.174665 C0.824985035,18.4319153 5.86917925,23.4761095 12.1747865,23.4761095 C18.4320368,23.4761095 23.476231,18.4319153 23.476231,12.174665 C23.476231,5.86905775 18.4320368,0.824863535 12.1747865,0.824863535 Z" id="Shape"></path>
                    <path d="M11.9917161,14.169127 C12.1671318,14.169127 12.3508568,14.1488613 12.5123157,14.2339113 C12.6176246,14.2900528 12.7046716,14.3817537 12.7538407,14.4907197 C12.7983588,14.5840706 12.8033422,14.6777617 12.8050034,14.7797537 C12.8083288,14.9139796 12.8764369,15.0398893 12.9953708,15.1079956 C13.0548377,15.1422155 13.1209539,15.1658033 13.1857382,15.1913846 C13.3113145,15.2405537 13.4475306,15.2339096 13.5598221,15.1555037 C13.6485293,15.0940466 13.7063378,15.0089957 13.8083297,14.9614877 C14.0279288,14.8591555 14.2744378,14.913647 14.4428793,15.0804216 C14.5501869,15.185739 14.688058,15.2947051 14.7644704,15.427264 C14.8937038,15.6501886 14.8425378,15.9222805 14.6657954,16.1026801 C14.5774224,16.1930457 14.5162924,16.2917122 14.5229369,16.4226127 C14.5262589,16.5143136 14.5707775,16.5976992 14.6046648,16.6810881 C14.6455228,16.7814216 14.7119724,16.8664691 14.8139644,16.9106551 C14.9126394,16.9548414 15.0166215,16.9345754 15.1202805,16.9515191 C15.3667979,16.9907186 15.5538381,17.2000267 15.5760974,17.4465356 C15.580084,17.4901663 15.5815975,17.534019 15.5818436,17.5779461 L15.5777933,17.8412152 L15.5777933,17.8412152 C15.579494,17.785435 15.5357509,17.7582089 15.4921979,17.759537 L15.4927085,17.8412161 C15.4927085,17.8687199 15.4903079,17.8956597 15.4857071,17.9218363 C15.5183749,17.92507 15.5523639,17.9111971 15.5683858,17.8812211 L15.5770065,17.8430159 L15.5684697,17.9303067 C15.5366628,18.1050901 15.4274395,18.2568442 15.2685535,18.338191 L15.1851005,18.3727778 C15.084767,18.4033429 14.982775,18.3810837 14.8824415,18.4050041 C14.7988881,18.4238313 14.7284993,18.469454 14.6760948,18.5323462 C14.6136463,18.7246368 14.5292812,18.9080084 14.4262666,19.0814178 L14.5214369,18.9193031 C14.5173741,19.0257095 14.5606421,19.1273967 14.6355949,19.2063367 C14.7120039,19.2864027 14.77845,19.3661456 14.8123374,19.4751117 C14.8498793,19.5973711 14.8412407,19.7302617 14.7920716,19.8475371 C14.7259623,20.0040121 14.5777882,20.1196291 14.4605127,20.2369046 C14.3040377,20.3950414 14.089414,20.4767694 13.8701466,20.4036791 C13.7648292,20.3681282 13.6884177,20.3033465 13.6100127,20.2285952 C13.507689,20.1332483 13.3684877,20.0923842 13.2322716,20.1315871 C13.0485466,20.1860702 12.8495441,20.2827465 12.8086801,20.4887291 C12.7900754,20.5890626 12.8086801,20.6893961 12.7764538,20.7897296 C12.7389127,20.905338 12.6658292,21.0040122 12.5671542,21.0737796 C12.4073453,21.1860762 12.2236288,21.1724546 12.0382453,21.1724546 C11.8408953,21.1724546 11.6555203,21.1571711 11.5093363,21.0040131 C11.424288,20.9156376 11.3731253,20.8016876 11.3595037,20.680755 C11.349205,20.5737791 11.3644877,20.4751126 11.3083411,20.3764376 C11.2558482,20.2827465 11.1724567,20.2319181 11.0754486,20.1910541 C10.9870732,20.1538447 10.9003647,20.1113194 10.8016897,20.1163028 C10.6774401,20.1232769 10.5940486,20.1877329 10.5089986,20.2694608 C10.4153075,20.3578329 10.303016,20.4156397 10.175441,20.4292613 C9.95284814,20.4531859 9.79437447,20.3372372 9.64653205,20.1893948 C9.5156401,20.0565041 9.36580241,19.9325778 9.33191508,19.7385617 C9.30799477,19.6109867 9.32859303,19.4817532 9.38972272,19.3694617 C9.44253877,19.2724537 9.53589901,19.2129867 9.58872271,19.1192956 C9.65184513,19.0070041 9.64819053,18.8827546 9.60068245,18.7671376 C9.5717748,18.6957126 9.54619346,18.6173033 9.50200743,18.5545126 C9.42692529,18.4491969 9.30964984,18.3963734 9.18207484,18.3947122 C9.07310878,18.3927186 8.97111681,18.3810905 8.8724418,18.3299279 C8.67675876,18.2275957 8.5814092,18.0252703 8.5814092,17.8109868 C8.5814092,17.6545118 8.55748889,17.4707868 8.61031259,17.3192957 C8.69037866,17.0880703 8.90632913,16.9485314 9.14619565,16.9468702 C9.26679655,16.9452118 9.37410414,16.9212957 9.46247959,16.8329203 C9.52726388,16.7684694 9.55616727,16.6834168 9.5900546,16.6000278 C9.6325796,16.4943787 9.65483889,16.3907283 9.61563594,16.2800952 C9.57809487,16.1714524 9.48640416,16.1116537 9.42161987,16.0216198 C9.2667991,15.8053461 9.30069153,15.5060126 9.48274956,15.3173037 C9.57278349,15.2236211 9.6648076,15.1216266 9.76514108,15.0382376 C9.96779823,14.8697961 10.2671317,14.8697961 10.4694572,15.0382376 C10.5731076,15.1232868 10.6548321,15.2050148 10.8010161,15.2033537 C10.8827406,15.2033537 10.9508478,15.1691347 11.0255991,15.1385694 C11.0937072,15.1113228 11.1634745,15.0890635 11.2212822,15.0398944 C11.3179577,14.958493 11.3521741,14.8462015 11.3554996,14.7236105 C11.358825,14.6010194 11.3930398,14.4870694 11.4677911,14.3883944 C11.5986916,14.214974 11.7857335,14.169127 11.9917161,14.169127 Z M13.0399005,16.0332427 C12.3545676,15.6299271 11.463167,15.7050092 10.8575174,16.2219517 C10.2502077,16.7408417 10.0272848,17.5946757 10.3096764,18.3431838 C10.5871095,19.0780838 11.3149929,19.561145 12.0957264,19.5594838 L12.0957546,19.5596165 L12.2440228,19.5521355 L12.2440228,19.5521355 L12.3937756,19.5322849 C13.1675095,19.3980759 13.7937582,18.7837683 13.9416006,18.0116759 C14.0894175,17.2375507 13.7169751,16.4329097 13.0399005,16.0332427 Z" id="Combined-Shape"></path>
                </g>
            </g>
        </g>
    </g>
</svg>