<?xml version="1.0" encoding="UTF-8"?>
<svg width="32px" height="32px" viewBox="0 0 32 32" version="1.1" xmlns="http://www.w3.org/2000/svg" xmlns:xlink="http://www.w3.org/1999/xlink">
    <!-- Generator: Sketch 59.1 (86144) - https://sketch.com -->
    <title>icon/store/black</title>
    <desc>Created with Sketch.</desc>
    <g id="icon/store/black" stroke="none" stroke-width="1" fill="none" fill-rule="evenodd">
        <path d="M26.8941489,10.9905792 L24.1441814,5.50666089 C23.990213,5.19870897 23.6768931,5.00357497 23.3331472,5 L8.66665341,5 C8.31933251,5 8.00155084,5.19604378 7.84668183,5.50666089 L5.09671425,10.9905792 C5.03226189,11.1185885 4.99914082,11.2600314 5.00001694,11.4032596 L5.00001694,14.1667602 C5.0054057,15.3278018 5.73856127,16.359938 6.83334628,16.7476164 L6.83334628,24.2500201 C6.83334628,25.7691319 8.06420885,27 9.58331385,27 L22.4164959,27 C23.9356009,27 25.1664635,25.7691319 25.1664635,24.2500201 L25.1664635,16.7476164 C26.2612485,16.3600067 26.9944127,15.3278705 26.9997752,14.1667602 L26.9997752,11.4346552 C27.0015654,11.3576695 26.9926138,11.2806838 26.9747092,11.2054902 C26.9568058,11.1311903 26.9299512,11.0586825 26.8941443,10.990648 L26.8941489,10.9905792 Z M24.600676,10.5000286 L20.4434125,10.5000286 L19.8311093,6.83338871 L22.767158,6.83338871 L24.600676,10.5000286 Z M17.9727958,6.83338871 L18.585099,10.5000286 L13.4147016,10.5000286 L14.0270048,6.83338871 L17.9727958,6.83338871 Z M9.23225299,6.83338871 L12.1683017,6.83338871 L11.5559985,10.5000286 L7.39873503,10.5000286 L9.23225299,6.83338871 Z M14.1663823,25.1665884 L14.1663823,21.4999484 C14.1663823,20.9932875 14.5763796,20.5832885 15.0830382,20.5832885 L16.9163499,20.5832885 C17.1598366,20.5832885 17.3925755,20.6799686 17.5644485,20.8518469 C17.7363215,21.0237252 17.8330058,21.2564606 17.8330058,21.4999484 L17.8330058,25.1665884 L14.1663823,25.1665884 Z M22.4162851,25.1665884 L19.6663175,25.1665884 L19.6663175,21.4999484 C19.6663175,19.9808366 18.4354549,18.7499685 16.9163499,18.7499685 L15.0830382,18.7499685 C13.5639332,18.7499685 12.3330706,19.9808366 12.3330706,21.4999484 L12.3330706,25.1665884 L9.58310302,25.1665884 C9.07644441,25.1665884 8.66644716,24.7565893 8.66644716,24.2499284 L8.66644716,16.9166485 L23.3329409,16.9166485 L23.3329409,24.2499284 C23.3329409,24.4934162 23.2362612,24.7261562 23.0643837,24.8980299 C22.8925061,25.0699037 22.6597718,25.1665884 22.4162851,25.1665884 Z M25.1662526,14.1666686 C25.1662526,14.4101564 25.0695729,14.6428964 24.8976954,14.8147701 C24.7258178,14.9866438 24.4930835,15.0833286 24.2495968,15.0833286 L7.74979131,15.0833286 C7.2431327,15.0833286 6.83313545,14.6733295 6.83313545,14.1666686 L6.83313545,12.3333486 L25.1662526,12.3333486 L25.1662526,14.1666686 Z" id="Shape" fill="#000000" fill-rule="nonzero"></path>
    </g>
</svg>