<?xml version="1.0" encoding="UTF-8"?>
<svg width="32px" height="32px" viewBox="0 0 32 32" version="1.1" xmlns="http://www.w3.org/2000/svg" xmlns:xlink="http://www.w3.org/1999/xlink">
    <!-- Generator: Sketch 59.1 (86144) - https://sketch.com -->
    <title>icon/cutting/black</title>
    <desc>Created with Sketch.</desc>
    <g id="icon/cutting/black" stroke="none" stroke-width="1" fill="none" fill-rule="evenodd">
        <g id="icon_scissor" transform="translate(2.000000, 1.000000)" fill="#000000" fill-rule="nonzero">
            <path d="M2.34528221,19.7096271 C3.96958754,18.3123772 6.35957366,17.9510521 8.38946597,18.8081297 C9.33658278,19.213843 10.3737073,19.0337961 11.1407772,18.4023849 C11.1864061,18.6737023 11.2764327,18.9437758 11.4564828,19.1694548 L11.4564828,19.1694548 L13.9821276,22.957922 L11.0951577,27.3320231 C9.92388991,29.090598 8.02949844,30.0377149 6.08964537,30.0377149 C5.0969091,30.0377149 4.10417283,29.8120169 3.20267549,29.2706449 C1.57852801,28.3235281 0.495755665,26.655024 0.315705603,24.7607904 L0.315705603,24.7607904 C0.135342992,22.8210636 0.901181643,21.0168377 2.34528221,19.7096271 Z M5.51542373,0.253895724 L5.59207124,0.271052202 C5.68209785,0.271052202 5.81651898,0.361075655 5.86214791,0.451102264 L5.86214791,0.451102264 L16.1904567,16.0551674 L16.8218679,17.0466724 L17.3176204,17.8137423 L17.3632493,17.8593712 C18.130414,18.8965052 19.4832756,19.3034718 20.6560588,18.8508762 C22.6860458,17.9937987 25.0760951,18.3538925 26.7002425,19.7523736 C28.0530726,20.9252199 28.7745231,22.5038426 28.7745231,24.2180293 C28.7745231,24.3980762 28.7288941,24.5793512 28.7288941,24.7594013 C28.547616,26.6535718 27.4660717,28.322139 25.8419243,29.2692558 C24.9392272,29.8106468 23.9476906,30.0363257 22.9549544,30.0363257 C21.0164588,30.0363257 19.1222252,29.0892089 17.949442,27.330634 L17.949442,27.330634 L14.5218768,22.1003677 L12.2218984,18.6276061 L5.27637511,8.16354389 C3.51655947,5.50372418 2.88514826,1.84958969 5.23074618,0.316681133 C5.36639225,0.271052202 5.4564157,0.225423271 5.59207124,0.271052202 Z M8.29958459,21.0167114 C7.44250702,20.4753394 6.40535097,20.2952894 5.4126147,20.4753394 C4.41987844,20.6566176 3.56280087,21.2424093 2.97700912,22.0994869 C1.8040681,23.8580618 2.2998206,26.2492792 4.05962677,27.4220624 C4.73665744,27.8734235 5.45807631,28.0534736 6.17952675,28.0534736 C7.44250702,28.0534736 8.66090965,27.4664506 9.38236009,26.3392869 C9.92373206,25.4822093 10.1494111,24.4450532 9.92373206,23.452317 C9.7424539,22.4595807 9.15666216,21.6025031 8.29958459,21.0167114 Z M25.0318237,21.0166167 C24.1747461,20.4752447 23.1375901,20.2495657 22.1448538,20.4752447 C21.1077293,20.6565229 20.2506202,21.2423146 19.7092482,22.0993922 C19.1677184,22.9565329 18.9420394,23.9480695 19.1677184,24.9408057 C19.3489965,25.933542 19.9347883,26.7906196 20.7918659,27.3764113 C21.4688965,27.8277725 22.1903154,28.0078225 22.9117658,28.0078225 C24.1747461,28.0078225 25.3931487,27.4207995 26.1145992,26.2936358 C27.2873824,24.5351556 26.7903986,22.1893999 25.0318237,21.0166167 Z M14.8824884,17.7252279 C14.4767435,17.7252279 14.1610379,18.0409335 14.1610379,18.4466784 C14.1610379,18.8068037 14.4767435,19.1224999 14.8824884,19.1681288 C15.2882332,19.1681288 15.6039388,18.8524232 15.6039388,18.4466784 C15.6039388,18.0409335 15.2882332,17.7252279 14.8824884,17.7252279 Z M23.4523485,0.270067201 C23.5879946,0.270067201 23.723647,0.270067201 23.8136736,0.361325062 C26.1135037,1.8939337 25.5264807,5.54690008 23.7679058,8.16132132 L23.7679058,8.16132132 L17.9052527,17.0010782 L16.9581359,15.5582089 L15.0639023,12.7168585 L23.1822719,0.450117263 C23.2266696,0.36009381 23.316693,0.315696131 23.4523485,0.270067201 Z" id="Combined-Shape"></path>
        </g>
    </g>
</svg>