<?xml version="1.0" encoding="UTF-8"?>
<svg width="32px" height="32px" viewBox="0 0 32 32" version="1.1" xmlns="http://www.w3.org/2000/svg" xmlns:xlink="http://www.w3.org/1999/xlink">
    <!-- Generator: Sketch 59.1 (86144) - https://sketch.com -->
    <title>icon/finishing/grey</title>
    <desc>Created with Sketch.</desc>
    <g id="icon/finishing/grey" stroke="none" stroke-width="1" fill="none" fill-rule="evenodd">
        <path d="M16.0004506,1 C24.2848374,1 30.9988267,7.6963 31,15.9802 C31,24.2653 24.2845371,31 16.0004506,31 C7.71636411,31 1,24.2653 1,15.9802 C1,7.696 7.71636411,1 16.0004506,1 Z M16.0004506,3.4963 C9.1032532,3.4963 3.50045379,9.0544 3.50162691,15.9415 C3.50162691,22.8286 9.1032532,28.4242 16.0004506,28.4242 C22.8964464,28.4242 28.4992741,22.8286 28.4992741,15.9415 C28.4992741,9.0532 22.897648,3.4963 16.0004506,3.4963 Z M16.0004506,4.6669 C22.2217761,4.6669 27.2496621,9.7294 27.2496621,15.9415 C27.2496621,22.1548 22.2229776,27.1762 16.0004506,27.1762 C9.77912507,27.1762 4.78998909,22.156 4.78998909,15.9415 C4.78998909,9.7294 9.78032662,4.6669 16.0004506,4.6669 Z M12.2492115,17.18968 C10.8693214,17.18968 9.74989737,18.30883 9.74989737,19.68577 C9.74989737,21.06505 10.8692914,22.1842 12.2492115,22.1842 C13.6314446,22.1842 14.7508704,21.06625 14.749698,19.68577 C14.749698,18.30883 13.6314746,17.18968 12.2492115,17.18968 Z M19.749587,17.18968 C18.3696969,17.18968 17.2502729,18.30883 17.2502729,19.68577 C17.2502729,21.06505 18.3696669,22.1842 19.749587,22.1842 C21.1306485,22.1842 22.2512441,21.06625 22.2512441,19.68577 C22.2512441,18.30883 21.1318501,17.18968 19.749587,17.18968 Z M12.2492115,9.70015 C10.8693214,9.70015 9.74989737,10.8181 9.74989737,12.19624 C9.74989737,13.57552 10.8692914,14.6935 12.2492115,14.6935 C13.6314446,14.6935 14.7508704,13.57555 14.749698,12.19624 C14.749698,10.81813 13.6314746,9.70015 12.2492115,9.70015 Z M19.749587,9.70015 C18.3696969,9.70015 17.2502729,10.8181 17.2502729,12.19624 C17.2502729,13.57552 18.3696669,14.6935 19.749587,14.6935 C21.1306485,14.6935 22.2512441,13.57555 22.2512441,12.19624 C22.2512441,10.81813 21.1318501,9.70015 19.749587,9.70015 Z" id="Combined-Shape" fill="#CDCDCD" fill-rule="nonzero"></path>
    </g>
</svg>