<?xml version="1.0" encoding="UTF-8"?>
<svg width="32px" height="32px" viewBox="0 0 32 32" version="1.1" xmlns="http://www.w3.org/2000/svg" xmlns:xlink="http://www.w3.org/1999/xlink">
    <!-- Generator: Sketch 59.1 (86144) - https://sketch.com -->
    <title>icon/sewing/grey</title>
    <desc>Created with Sketch.</desc>
    <g id="icon/sewing/grey" stroke="none" stroke-width="1" fill="none" fill-rule="evenodd">
        <path d="M29.455375,27.2101526 L26.2192508,29.0369341 C24.1508966,30.22131 21.4817748,29.8485362 19.7794998,28.1565705 C18.7120913,27.0739832 18.1112569,25.6530028 18.1451556,24.1303691 C18.179041,22.6076 18.7785541,21.1866196 19.8798613,20.1715079 L29.4228776,11.2714303 C31.3244075,9.51205671 31.5251305,6.53392648 29.9233505,4.50356771 C29.0553303,3.38659968 27.7546348,2.70981342 26.3860083,2.64240551 C25.6522484,2.60803831 24.9184885,2.70982019 24.2511913,2.98079864 C23.5499955,2.33839313 22.6494113,2 21.7488271,2 C20.7817801,2 19.8472972,2.37277387 19.1135372,3.11696803 C17.9770635,4.30134398 3.49711597,22.5072326 1.06148142,26.3314134 C0.894657136,26.5680246 1.09536677,26.8733838 1.32866052,26.8733838 C1.39512999,26.8733838 1.46159946,26.8390166 1.52937015,26.8059691 C5.26590047,24.3024014 23.2505593,9.64977595 24.4183293,8.4308839 C25.5860992,7.24650796 25.8193863,5.4197265 25.0856264,3.99725715 C25.4857378,3.86242779 25.9197478,3.82806058 26.3537579,3.86242779 C27.3886023,3.92984247 28.3556493,4.43742539 29.0229464,5.28340821 C30.2246151,6.80617728 30.0577908,9.04024871 28.6228351,10.3593051 L19.0788178,19.2580292 C17.7103248,20.5098131 16.9440007,22.2691866 16.9440007,24.1302134 C16.9101154,25.9913756 17.6112979,27.7506815 18.9458922,29.0714299 C20.2140236,30.3232137 21.9148306,31 23.6169721,31 C24.7182793,31 25.8195865,30.7290216 26.8205322,30.1540172 L30.0566564,28.3272357 C30.3564196,28.1580392 30.4567678,27.7852653 30.2899502,27.4812529 C30.1231326,27.1772405 29.7555786,27.0410711 29.4558287,27.2102745 L29.455375,27.2101526 Z M17.2431701,9.24215436 C17.4764638,8.59974884 17.9443659,7.88858185 18.5777643,7.24617633 C19.6126087,6.19661621 20.6461186,5.757788 21.2469529,5.757788 C21.4476625,5.757788 21.5806015,5.79215521 21.680963,5.89261736 C22.0485102,6.26539123 21.7148483,7.65199091 20.3463687,9.03994416 C19.3115243,10.0895043 18.2780145,10.5283325 17.6771801,10.5283325 C17.4764705,10.5283325 17.3435316,10.4939653 17.2431701,10.3935031 C17.0437617,10.1886162 17.0437617,9.78280505 17.2431701,9.24218819 L17.2431701,9.24215436 Z" id="Shape" fill="#CDCDCD" fill-rule="nonzero"></path>
    </g>
</svg>