<?xml version="1.0" encoding="UTF-8"?>
<svg width="32px" height="32px" viewBox="0 0 32 32" version="1.1" xmlns="http://www.w3.org/2000/svg" xmlns:xlink="http://www.w3.org/1999/xlink">
    <!-- Generator: Sketch 59.1 (86144) - https://sketch.com -->
    <title>icon/stock/grey</title>
    <desc>Created with Sketch.</desc>
    <g id="icon/stock/grey" stroke="none" stroke-width="1" fill="none" fill-rule="evenodd">
        <g id="np_warehouse_2490605_000000" transform="translate(1.000000, 3.000000)" fill="#CDCDCD" fill-rule="nonzero">
            <path d="M30.4055164,10.296024 L16.0418238,0.387012751 C15.7190442,0.161318793 15.2676692,0.161318793 14.9448896,0.387012751 L0.581196964,10.296024 C0.128563118,10.5872809 0.0327298523,11.1685295 0.322721508,11.6199368 L0.903983028,12.4596802 C1.03259134,12.6853742 1.25955704,12.8152542 1.51674784,12.8467575 C1.77522329,12.879539 2.03371166,12.8467575 2.22660475,12.6853677 L3.64631858,11.7170289 L3.64757936,23.5627178 C3.64757936,23.9825895 4.00315338,24.3368724 4.42173397,24.3368724 L5.84144781,24.3368724 C6.26131952,24.3368724 6.61560242,23.9812984 6.61560242,23.5627178 L6.6168632,9.8445844 C6.6168632,9.74749875 6.64964469,9.68319459 6.71394885,9.6504131 L15.3647651,3.67899034 C15.4618508,3.61468618 15.5589364,3.61468618 15.6547633,3.67899034 L24.3055795,9.6504131 C24.3698837,9.68319459 24.4026652,9.7790214 24.4026652,9.8445844 L24.4026652,23.5627178 C24.4026652,23.9825895 24.7582392,24.3368724 25.1768198,24.3368724 L26.5965336,24.3368724 C27.0164054,24.3368724 27.3706883,23.9812984 27.3706883,23.5627178 L27.371949,11.7483385 L28.7916629,12.7166774 C29.2115346,13.0066755 29.8242994,12.9108487 30.1155757,12.4582019 L30.6640428,11.6197173 C30.7926511,11.3940234 30.8582141,11.1683423 30.8254326,10.9098604 C30.7611285,10.6513849 30.6312613,10.425691 30.4055609,10.2958367 L30.4055164,10.296024 Z" id="Path"></path>
            <path d="M14.2352263,18.2699714 L12.4599385,18.2699714 L12.4599385,19.3354023 L11.0402246,19.3354023 L11.0402246,18.2699714 L9.26493678,18.2699714 C8.97493867,18.2699714 8.71646967,18.4956654 8.71646967,18.8184385 L8.71646967,23.7885989 C8.71646967,24.0785971 8.94216362,24.3370661 9.26493678,24.3370661 L14.2350972,24.3370661 C14.5250953,24.3370661 14.7835643,24.1113721 14.7835643,23.7885989 L14.7835643,18.8184385 C14.7835643,18.4956589 14.5250888,18.2699714 14.2350972,18.2699714 L14.2352263,18.2699714 Z" id="Path"></path>
            <path d="M13.008341,10.7801934 C12.7183429,10.7801934 12.4598739,11.0058873 12.4598739,11.3286605 L12.4598739,16.2988209 C12.4598739,16.588819 12.6855679,16.847288 13.008341,16.847288 L17.9785014,16.847288 C18.2684995,16.847288 18.5269685,16.6215941 18.5269685,16.2988209 L18.5269685,11.3296288 C18.5269685,11.0396307 18.3012746,10.7811617 17.9785014,10.7811617 L16.2032136,10.7811617 L16.2032136,11.8465926 L14.7834997,11.8465926 L14.7834997,10.7811617 L13.008341,10.7801934 Z" id="Path"></path>
            <path d="M21.7233904,18.2699714 L19.9481026,18.2699714 L19.9481026,19.3354023 L18.5283888,19.3354023 L18.5283888,18.2699714 L16.7531009,18.2699714 C16.4631028,18.2699714 16.2046338,18.4956654 16.2046338,18.8184385 L16.2046338,23.7885989 C16.2046338,24.0785971 16.4303278,24.3370661 16.7531009,24.3370661 L21.7232613,24.3370661 C22.0132594,24.3370661 22.2717284,24.1113721 22.2717284,23.7885989 L22.2717284,18.8184385 C22.2717284,18.4956589 22.013253,18.2699714 21.7232613,18.2699714 L21.7233904,18.2699714 Z" id="Path"></path>
        </g>
    </g>
</svg>