<?xml version="1.0" encoding="UTF-8"?>
<svg width="32px" height="32px" viewBox="0 0 32 32" version="1.1" xmlns="http://www.w3.org/2000/svg" xmlns:xlink="http://www.w3.org/1999/xlink">
    <!-- Generator: Sketch 59.1 (86144) - https://sketch.com -->
    <title>icon/packing/grey</title>
    <desc>Created with Sketch.</desc>
    <g id="icon/packing/grey" stroke="none" stroke-width="1" fill="none" fill-rule="evenodd">
        <path d="M15.7834592,17.4554879 L15.7834592,31 L4.28843013,29.3963912 L4.38731244,19.6018752 L13.8305257,20.8353791 L15.7834592,17.4554879 Z M17.1926508,17.4308248 L19.170297,20.8353475 L28.6134786,19.6018436 L28.7123609,29.3963596 L17.1926508,30.9999684 L17.1926508,17.4308248 Z M28.5389609,11.8798833 L32,17.9736663 L19.7879555,19.552612 L16.5,14.4210385 L13.2120445,19.552612 L1,17.9736663 L4.46103909,11.8798833 L16.5,13.5575131 L28.5389609,11.8798833 Z M17.6374788,1 L18.0330081,6.45241531 L20.0600796,6.45241531 L16.5003481,11.2631471 L12.9405849,6.45241531 L14.9676564,6.45241531 L15.3631857,1 L17.6374788,1 Z" id="Combined-Shape" fill="#CDCDCD" fill-rule="nonzero"></path>
    </g>
</svg>