<?xml version="1.0" encoding="UTF-8"?>
<svg width="21px" height="17px" viewBox="0 0 21 17" version="1.1" xmlns="http://www.w3.org/2000/svg" xmlns:xlink="http://www.w3.org/1999/xlink">
    <!-- Generator: Sketch 60.1 (88133) - https://sketch.com -->
    <title>logout_icon</title>
    <desc>Created with Sketch.</desc>
    <g id="Page-1" stroke="none" stroke-width="1" fill="none" fill-rule="evenodd">
        <g id="Desktop-HD-Copy-5" transform="translate(-121.000000, -480.000000)" fill="#C7F7EF" fill-rule="nonzero">
            <g id="logout" transform="translate(121.000000, 480.000000)">
                <g id="logout_icon">
                    <path d="M5.95630693,14.2038394 C5.70755814,13.9538394 5.70755814,13.5475834 5.95630693,13.2975994 C6.20630692,13.0475994 6.6125629,13.0475994 6.86254689,13.2975994 C9.61128277,16.0476153 14.0689466,16.0476153 16.8174264,13.2975994 C19.5674423,10.5488635 19.5674423,6.09119973 16.8174264,3.34271985 C14.0686906,0.592703974 9.61102677,0.592703974 6.86254689,3.34271985 C6.6125469,3.59271984 6.20629092,3.59271984 5.95630693,3.34271985 C5.70755814,3.09271986 5.70755814,2.68646388 5.95630693,2.43647989 C9.20622679,-0.812159964 14.4737466,-0.812159964 17.7236664,2.43647989 C20.9723063,5.68639975 20.9723063,10.9539195 17.7236664,14.2038394 C14.4737466,17.4524792 9.20622679,17.4524792 5.95630693,14.2038394 Z M15.2987065,8.8700796 L11.5188667,12.6012794 C10.9163707,13.2037754 10.0113788,12.3000283 10.6138747,11.6987835 L13.1363706,9.18252759 C13.260121,9.06002839 13.220121,8.9587772 13.0451194,8.9587772 L0.639999971,8.9587772 C0.284991987,8.9587772 0,8.67252761 0,8.32002523 C0,7.96501724 0.286249587,7.68127326 0.639999971,7.68127326 L13.0451194,7.68127326 C13.220121,7.68127326 13.261369,7.58127326 13.1363706,7.45752287 L10.6138747,4.94126698 C10.0113788,4.34001901 10.9163739,3.43627505 11.5188667,4.03877102 L15.2939065,7.74629085 C15.6114073,8.05754204 15.6126553,8.56005082 15.2989065,8.8700348 L15.2987065,8.8700796 Z" id="Shape"></path>
                </g>
            </g>
        </g>
    </g>
</svg>