<?xml version="1.0" encoding="UTF-8"?>
<svg width="20px" height="20px" viewBox="0 0 20 20" version="1.1" xmlns="http://www.w3.org/2000/svg" xmlns:xlink="http://www.w3.org/1999/xlink">
    <!-- Generator: Sketch 60.1 (88133) - https://sketch.com -->
    <title>menu_icon</title>
    <desc>Created with Sketch.</desc>
    <g id="Page-1" stroke="none" stroke-width="1" fill="none" fill-rule="evenodd">
        <g id="Desktop-HD-main" transform="translate(-18.000000, -58.000000)" fill="#D2FDF3" fill-rule="nonzero">
            <g id="menu_icon" transform="translate(18.000000, 58.000000)">
                <path d="M13.5469345,8.40000075 L1.60000014,8.40000075 C0.800000072,8.40000075 0.133333345,9.06666748 0.133333345,9.86666755 C0.133333345,10.6666676 0.800000072,11.3333343 1.60000014,11.3333343 L13.5728012,11.3333343 C14.3728013,11.3333343 15.039468,10.6666676 15.039468,9.86666755 C15.0134261,9.03957414 14.3728013,8.40000075 13.5467479,8.40000075 L13.5469345,8.40000075 Z" id="Path"></path>
                <path d="M18.2136016,0 L1.60000014,0 C0.800000072,0 0.133333345,0.666666726 0.133333345,1.4666668 C0.133333345,2.26666687 0.800000072,2.9333336 1.60000014,2.9333336 L18.2394683,2.9333336 C19.0394684,2.9333336 19.7061351,2.26666687 19.7061351,1.4666668 C19.6800932,0.666666726 19.0394684,0 18.213415,0 L18.2136016,0 Z" id="Path"></path>
                <path d="M18.2136016,16.7728015 L1.60000014,16.7728015 C0.800000072,16.7728015 0.133333345,17.4394682 0.133333345,18.2394683 C0.133333345,19.0394684 0.800000072,19.7061351 1.60000014,19.7061351 L18.2394683,19.7061351 C19.0394684,19.7061351 19.7061351,19.0394684 19.7061351,18.2394683 C19.6800932,17.4394682 19.0394684,16.7728015 18.213415,16.7728015 L18.2136016,16.7728015 Z" id="Path"></path>
            </g>
        </g>
    </g>
</svg>