<?xml version="1.0" encoding="UTF-8"?>
<svg width="18px" height="18px" viewBox="0 0 18 18" version="1.1" xmlns="http://www.w3.org/2000/svg" xmlns:xlink="http://www.w3.org/1999/xlink">
    <!-- Generator: Sketch 60.1 (88133) - https://sketch.com -->
    <title>setting_icon</title>
    <desc>Created with Sketch.</desc>
    <g id="Page-1" stroke="none" stroke-width="1" fill="none" fill-rule="evenodd">
        <g id="Desktop-HD-Copy-5" transform="translate(-121.000000, -424.000000)" fill="#C7F7EF" fill-rule="nonzero">
            <g id="setting" transform="translate(121.000000, 424.000000)">
                <g id="setting_icon">
                    <path d="M6.25000056,12.4997621 C5.11328046,12.5037018 4.12180037,13.2740156 3.83760034,14.3747957 L0.625200056,14.3747957 C0.279880025,14.3747957 0.000200000018,14.6544758 0.000200000018,14.9997958 C0.000200000018,15.3451158 0.279880025,15.6247959 0.625200056,15.6247959 L3.83760034,15.6247959 C4.07666036,16.5490159 4.82042043,17.256836 5.75556051,17.449016 C6.6907206,17.640422 7.65400068,17.283392 8.23676074,16.5271359 C8.82036079,15.7716759 8.9227008,14.7497958 8.50004076,13.8935357 C8.07816072,13.0372956 7.20472064,12.4966556 6.25004056,12.4997621 L6.25000056,12.4997621 Z M6.25000056,16.2497959 C5.74454051,16.2497959 5.28828047,15.9451159 5.09532046,15.4779158 C4.90157044,15.0107358 5.00860245,14.4732358 5.36642048,14.1161957 C5.72346051,13.7583757 6.26096056,13.6513557 6.7281406,13.8450957 C7.19532064,14.0380637 7.50002067,14.4943158 7.50002067,14.9997758 C7.50002067,15.3310158 7.36798866,15.6489959 7.13362064,15.8833759 C6.89925262,16.1177559 6.58128059,16.2497959 6.25002056,16.2497959 L6.25000056,16.2497959 Z M0.625000056,3.12479474 L3.83740034,3.12479474 C4.15224037,4.34355485 5.32412048,5.13879492 6.57340059,4.97947491 C7.8218407,4.82088089 8.75780078,3.7583748 8.75780078,2.49987468 C8.75780078,1.24137457 7.8218607,0.178874476 6.57340059,0.0202744617 C5.32418048,-0.139099553 4.15240037,0.656214519 3.83740034,1.87495463 L0.625000056,1.87495463 C0.279680025,1.87495463 3.55271368e-15,2.15463465 3.55271368e-15,2.49995468 C3.55271368e-15,2.84527471 0.279680025,3.12495474 0.625000056,3.12495474 L0.625000056,3.12479474 Z M6.25000056,1.24979457 C6.7554606,1.24979457 7.21172064,1.5544746 7.40468066,2.02167464 C7.59843068,2.48885468 7.49139867,3.02635473 7.13358064,3.38339476 C6.77654061,3.74121479 6.23904056,3.8482348 5.77186052,3.65449479 C5.30468047,3.46152677 4.99998045,3.00527473 4.99998045,2.49981468 C4.99998045,1.80919462 5.5593605,1.24979457 6.24998056,1.24979457 L6.25000056,1.24979457 Z M16.8750015,8.12479519 L13.6626012,8.12479519 C13.3477612,6.90603508 12.1758811,6.11079501 10.926601,6.27011502 C9.67816087,6.42870903 8.74220078,7.49121513 8.74220078,8.74971524 C8.74220078,10.0082154 9.67814087,11.0707154 10.926601,11.2293155 C12.1758211,11.3886895 13.3476012,10.5933754 13.6626012,9.3746353 L16.8750015,9.3746353 C17.2203215,9.3746353 17.5000016,9.09495527 17.5000016,8.74963524 C17.5000016,8.40431521 17.2203215,8.12463519 16.8750015,8.12463519 L16.8750015,8.12479519 Z M11.250001,9.99979535 C10.744541,9.99979535 10.2882809,9.69511533 10.0953209,9.22791528 C9.90157089,8.76073524 10.0086029,8.2232352 10.3664209,7.86619516 C10.723461,7.50837513 11.260961,7.40135512 11.728141,7.59509514 C12.1953211,7.78806316 12.5000211,8.2443152 12.5000211,8.74977524 C12.5000211,9.08101527 12.3679891,9.3989953 12.1336211,9.63337532 C11.8992531,9.86775534 11.581281,9.99979535 11.250021,9.99979535 L11.250001,9.99979535 Z M0,8.74979524 C0,8.40447521 0.279680025,8.12479519 0.625000056,8.12479519 L6.87500061,8.12479519 C7.22032065,8.12479519 7.5,8.40447521 7.5,8.74979524 C7.5,9.09511527 7.22032065,9.3747953 6.87500061,9.3747953 L0.625000056,9.3747953 C0.279680025,9.3747953 0,9.09511527 0,8.74979524 Z M17.5000089,14.9997958 C17.5000089,15.1654198 17.4343776,15.3247958 17.3171895,15.4419758 C17.2000015,15.5591639 17.0406295,15.6247879 16.8750095,15.6247879 L10.6250089,15.6247879 C10.2796889,15.6247879 10.0000089,15.3451078 10.0000089,14.9997878 C10.0000089,14.6544678 10.2796889,14.3747877 10.6250089,14.3747877 L16.8750095,14.3747877 C17.0406335,14.3747877 17.2000095,14.4404118 17.3171895,14.5575998 C17.4343776,14.6747878 17.5000089,14.8341598 17.5000089,14.9997798 L17.5000089,14.9997958 Z M10.0000009,2.49979468 C10.0000009,2.15447465 10.2796809,1.87479463 10.6250009,1.87479463 L16.8750015,1.87479463 C17.2203215,1.87479463 17.5000009,2.15447465 17.5000009,2.49979468 C17.5000009,2.84511471 17.2203215,3.12479474 16.8750015,3.12479474 L10.6250009,3.12479474 C10.2796809,3.12479474 10.0000009,2.84511471 10.0000009,2.49979468 Z" id="Shape"></path>
                </g>
            </g>
        </g>
    </g>
</svg>